<?xml version="1.0" standalone="no"?><svg xmlns="http://www.w3.org/2000/svg" viewBox="0 0 1440 320"><path fill="#0099ff" fill-opacity="1" d="M0,128L30,149.3C60,171,120,213,180,202.7C240,192,300,128,360,112C420,96,480,128,540,128C600,128,660,96,720,96C780,96,840,128,900,149.3C960,171,1020,181,1080,176C1140,171,1200,149,1260,138.7C1320,128,1380,128,1410,128L1440,128L1440,320L1410,320C1380,320,1320,320,1260,320C1200,320,1140,320,1080,320C1020,320,960,320,900,320C840,320,780,320,720,320C660,320,600,320,540,320C480,320,420,320,360,320C300,320,240,320,180,320C120,320,60,320,30,320L0,320Z"></path></svg>